  <svg xmlns="http://www.w3.org/2000/svg" width="54" height="54" viewBox="0 0 54 54" fill="none">
                        <g filter="url(#filter0_d_1_611)">
                            <rect x="10" y="10" width="34" height="34" rx="10" fill="url(#paint0_linear_1_611)" shape-rendering="crispEdges" />
                            <path d="M20.8644 38.5873H27.8464C30.1443 38.5873 32.096 38.1351 33.7016 37.2308C35.3072 36.319 36.5298 35.0176 37.3694 33.3265C38.209 31.628 38.6288 29.6024 38.6288 27.2495C38.6288 24.9114 38.2127 22.9041 37.3804 21.2277C36.5482 19.544 35.3514 18.2536 33.79 17.3566C32.2286 16.4522 30.3505 16 28.1557 16H20.8644V24.8666C20.9751 24.7221 21.1501 24.7276 21.3498 24.7338C21.3917 24.7351 21.4346 24.7365 21.4783 24.7365H21.7798C22.4045 24.727 22.6869 24.6193 23.9076 23.4896C25.0061 22.1117 26.6784 21.317 28.4406 21.3355C30.5667 21.3355 32.5313 22.4699 33.5943 24.3112C34.6574 26.1527 34.6574 28.421 33.5943 30.2623C32.5314 32.1037 30.5667 33.238 28.4406 33.238C26.6748 33.274 24.9951 32.4757 23.9076 31.0839C22.6869 29.9543 22.4045 29.837 21.7798 29.837H21.7344C21.2151 29.837 21.3635 29.4157 21.3635 29.4157L21.9163 27.0368L20.8644 28.303V38.5873Z" fill="white" />
                            <path d="M19.368 24.55C19.6258 24.6085 19.7874 24.8649 19.7289 25.1228L18.6998 29.6582C18.6413 29.916 18.3849 30.0776 18.1271 30.0191C17.8693 29.9606 17.7077 29.7042 17.7662 29.4464L18.7953 24.9109C18.8538 24.6531 19.1102 24.4915 19.368 24.55Z" fill="white" />
                            <path d="M17.9877 25.4064C18.0455 25.1484 17.8833 24.8924 17.6253 24.8346C17.3674 24.7768 17.1114 24.939 17.0535 25.197L16.2278 28.8804C16.17 29.1383 16.3322 29.3944 16.5902 29.4522C16.8481 29.51 17.1041 29.3478 17.162 29.0898L17.9877 25.4064Z" fill="white" />
                            <path d="M16.116 25.3125C16.3741 25.3695 16.5372 25.625 16.4802 25.8831L15.9462 28.3019C15.8892 28.56 15.6337 28.7231 15.3756 28.6661C15.1174 28.6091 14.9544 28.3537 15.0114 28.0955L15.5454 25.6767C15.6024 25.4186 15.8578 25.2555 16.116 25.3125Z" fill="white" />
                            <path d="M32.5172 25.4465C32.5199 25.5122 32.4664 25.5655 32.4006 25.5655C32.3349 25.5655 32.282 25.5122 32.2791 25.4465C32.2608 25.0268 32.1461 24.6164 31.9432 24.2473C31.7212 23.8434 31.4007 23.5022 31.0116 23.2552C30.6225 23.0082 30.1773 22.8636 29.7173 22.8346C29.2969 22.8082 28.8767 22.8792 28.4892 23.0414C28.4286 23.0667 28.3578 23.0415 28.3298 22.982C28.3018 22.9226 28.3273 22.8515 28.3878 22.8259C28.8117 22.6468 29.2719 22.5682 29.7322 22.5972C30.2322 22.6286 30.7161 22.7859 31.1391 23.0543C31.5621 23.3227 31.9104 23.6937 32.1517 24.1327C32.3739 24.5369 32.4988 24.9867 32.5172 25.4465Z" fill="white" />
                        </g>
                        <defs>
                            <filter id="filter0_d_1_611" x="0" y="0" width="54" height="54" filterUnits="userSpaceOnUse" color-interpolation-filters="sRGB">
                                <feFlood flood-opacity="0" result="BackgroundImageFix" />
                                <feColorMatrix in="SourceAlpha" type="matrix" values="0 0 0 0 0 0 0 0 0 0 0 0 0 0 0 0 0 0 127 0" result="hardAlpha" />
                                <feOffset />
                                <feGaussianBlur stdDeviation="5" />
                                <feComposite in2="hardAlpha" operator="out" />
                                <feColorMatrix type="matrix" values="0 0 0 0 0 0 0 0 0 0 0 0 0 0 0 0 0 0 0.15 0" />
                                <feBlend mode="normal" in2="BackgroundImageFix" result="effect1_dropShadow_1_611" />
                                <feBlend mode="normal" in="SourceGraphic" in2="effect1_dropShadow_1_611" result="shape" />
                            </filter>
                            <linearGradient id="paint0_linear_1_611" x1="27" y1="10" x2="27" y2="44" gradientUnits="userSpaceOnUse">
                                <stop stop-color="#595959" />
                                <stop offset="1" />
                            </linearGradient>
                        </defs>
                    </svg>